<svg xmlns="http://www.w3.org/2000/svg" shape-rendering="crispEdges" viewBox="0 -0.5 81 28"><path stroke="#fff" d="M8 0h10m10 0h2m10 0h2m14 0h10M8 1h10m10 0h2m10 0h2m14 0h10m6 0h3m1 0h2m1 0h2M0 2h8m8 0h6m4 0h2m2 0h2m6 0h2m2 0h2m4 0h8m8 0h6m3 0h1m2 0h1m1 0h1m1 0h1M0 3h8m8 0h6m4 0h2m2 0h2m6 0h2m2 0h2m4 0h8m8 0h6m3 0h1m2 0h1m1 0h1m1 0h1M0 4h2m18 0h2m2 0h2m6 0h2m2 0h2m6 0h2m2 0h2m18 0h2M0 5h2m18 0h2m2 0h2m6 0h2m2 0h2m6 0h2m2 0h2m18 0h2M0 6h2m6 0h6m6 0h4m10 0h2m10 0h4m6 0h6m6 0h4M0 7h2m6 0h6m6 0h4m10 0h2m10 0h4m6 0h6m6 0h4M0 8h2m6 0h6m6 0h6m18 0h6m6 0h6m6 0h4M0 9h2m6 0h6m6 0h6m18 0h6m6 0h6m6 0h4M0 10h2m6 0h4m8 0h8m14 0h8m6 0h4m8 0h4M0 11h2m6 0h4m8 0h8m14 0h8m6 0h4m8 0h4M2 12h2m14 0h6m2 0h4m10 0h6m4 0h2m14 0h6M2 13h2m14 0h6m2 0h4m10 0h6m4 0h2m14 0h6M2 14h2m10 0h8m4 0h2m14 0h4m4 0h2m10 0h8M2 15h2m10 0h8m4 0h2m14 0h4m4 0h2m10 0h8M2 16h2m4 0h14m2 0h2m18 0h4m2 0h2m4 0h14M2 17h2m4 0h14m2 0h2m18 0h4m2 0h2m4 0h14M2 18h2m4 0h10m4 0h2m10 0h2m10 0h6m4 0h10M2 19h2m4 0h10m4 0h2m10 0h2m10 0h6m4 0h10M2 20h2m4 0h4m10 0h4m6 0h6m6 0h8m4 0h4M2 21h2m4 0h4m10 0h4m6 0h6m6 0h8m4 0h4M2 22h10m12 0h4m2 0h10m2 0h6m2 0h10M2 23h10m12 0h4m2 0h10m2 0h6m2 0h10M4 24h8m14 0h8m4 0h8m6 0h8M4 25h8m14 0h8m4 0h8m6 0h8m-32 1h4m8 0h4m-16 1h4m8 0h4"/></svg>