<svg xmlns="http://www.w3.org/2000/svg" shape-rendering="crispEdges" viewBox="0 -0.5 78 28"><path stroke="#000" d="M42 0h6m-6 1h6m-8 1h2m2 0h6M40 3h2m2 0h6M38 4h8m-8 1h8M34 6h12M34 7h12M36 8h10M36 9h10m-12 1h2m2 0h8m-12 1h2m2 0h8m-14 1h2m6 0h4m-12 1h2m6 0h4m-14 1h2m6 0h2m2 0h2m-14 1h2m6 0h2m2 0h2m-16 1h2m6 0h2m-10 1h2m6 0h2m-12 1h2m6 0h2m-10 1h2m6 0h2m-12 1h2m6 0h2m-10 1h2m6 0h2m-12 1h2m6 0h2m12 0h2m-24 1h2m6 0h2m12 0h2m-24 1h2m4 0h2m12 0h4m-24 1h2m4 0h2m12 0h4m-24 1h6m12 0h6m-24 1h6m12 0h6"/><path stroke="red" d="M8 2h10M8 3h10M0 4h8m8 0h6M0 5h8m8 0h6M0 6h2m18 0h2M0 7h2m18 0h2M0 8h2m6 0h6m6 0h2M0 9h2m6 0h6m6 0h2M0 10h2m6 0h6m6 0h4M0 11h2m6 0h6m6 0h4M0 12h2m6 0h4m8 0h4M0 13h2m6 0h4m8 0h4M2 14h2m14 0h6M2 15h2m14 0h6M2 16h2m10 0h8M2 17h2m10 0h8M2 18h2m4 0h14M2 19h2m4 0h14M2 20h2m4 0h10M2 21h2m4 0h10M2 22h2m4 0h4M2 23h2m4 0h4M2 24h10M2 25h10m-8 1h8m-8 1h8"/><path stroke="#fff" d="M42 2h2m-2 1h2M8 4h8m38 0h8M8 5h8m38 0h8M2 6h18m28 0h18M2 7h18m28 0h18M2 8h6m6 0h6m28 0h6m6 0h6M2 9h6m6 0h6m28 0h6m6 0h6M2 10h6m6 0h6m16 0h2m10 0h6m6 0h6M2 11h6m6 0h6m16 0h2m10 0h6m6 0h6M2 12h6m4 0h8m14 0h6m8 0h6m4 0h8M2 13h6m4 0h8m14 0h6m8 0h6m4 0h8M4 14h14m14 0h6m12 0h14M4 15h14m14 0h6m12 0h14M4 16h10m16 0h6m14 0h10M4 17h10m16 0h6m14 0h10M4 18h4m20 0h4m18 0h4M4 19h4m20 0h4m18 0h4M4 20h4m18 0h4m20 0h4M4 21h4m18 0h4m20 0h4M4 22h4m16 0h4m22 0h4M4 23h4m16 0h4m22 0h4"/><path stroke="#00f" d="M54 2h10M54 3h10m5 0h3m1 0h2m1 0h2M46 4h8m8 0h6m2 0h1m2 0h1m1 0h1m1 0h1M46 5h8m8 0h6m2 0h1m2 0h1m1 0h1m1 0h1M46 6h2m18 0h2M46 7h2m18 0h2M46 8h2m6 0h6m6 0h4M46 9h2m6 0h6m6 0h4m-24 1h2m6 0h6m6 0h4m-24 1h2m6 0h6m6 0h4m-24 1h2m6 0h4m8 0h4m-24 1h2m6 0h4m8 0h4m-22 1h2m14 0h6m-22 1h2m14 0h6m-22 1h2m10 0h8m-20 1h2m10 0h8m-20 1h2m4 0h14m-20 1h2m4 0h14m-20 1h2m4 0h10m-16 1h2m4 0h10m-16 1h2m4 0h4m-10 1h2m4 0h4m-10 1h10m-10 1h10m-8 1h8m-8 1h8"/><path stroke="#f0f" d="M24 4h4m-4 1h4m-6 1h6m-6 1h6m-6 1h4m-4 1h4"/><path stroke="#d2af00" d="M28 6h2m-2 1h2m0 1h2m-2 1h2m-8 1h2m6 0h2m-10 1h2m6 0h2m-8 1h2m-2 1h2m0 1h2m-2 1h2m8 1h2m-2 1h2m0 1h2m-2 1h2m-8 1h2m6 0h2m-10 1h2m6 0h2m-8 1h2m-2 1h2m0 1h2m-2 1h2"/><path stroke="#ff0" d="M26 8h4m-4 1h4m-4 1h6m-6 1h6m-4 1h4m-4 1h4m4 5h4m-4 1h4m-4 1h6m-6 1h6m-4 1h6m-6 1h6m-4 1h2m-2 1h2"/><path stroke="#0f0" d="M32 18h2m-2 1h2m-4 1h2m-2 1h2m-4 1h2m-2 1h2m-6 1h4m-4 1h4"/></svg>